<!-- Created with Inkscape (http://www.inkscape.org/) -->
<svg xmlns:rdf="http://www.w3.org/1999/02/22-rdf-syntax-ns#" xmlns="http://www.w3.org/2000/svg" xml:space="preserve" height="112.25" width="77.144" version="1.1" xmlns:cc="http://creativecommons.org/ns#" xmlns:dc="http://purl.org/dc/elements/1.1/"><metadata><rdf:RDF><cc:Work rdf:about=""><dc:format>image/svg+xml</dc:format><dc:type rdf:resource="http://purl.org/dc/dcmitype/StillImage"/><dc:title/></cc:Work></rdf:RDF></metadata><defs/><g transform="matrix(1.25,0,0,-1.25,-17.77175,112.25111)"><g transform="scale(0.1,0.1)"><path fill-rule="evenodd" fill="#FFF" d="m161.29,390.32c-9.047-3.605-6.859-32.277-5.141-61.32,1.348-22.703-19.078-34.207-12.757-61.531,5.922-25.586,30.187-55.559,44.785-83.243,10.113-19.179,10.847-39.21,26.879-53.769,14.316-12.988,57.871-28.711,89.609-44.797,62.38-31.64,69.59-21.452,125.89-61.085,37.68-26.535,63.15-22.742,110.44-24.508,83.25-3.125,222.33,103.2,218.24,147.11-6.633,71.074-29.98,80.976-32.363,104.09-2.383,23.078-2.969,66.32-21.543,128.7-21.348,71.687-58.867,159.5-83.437,204.05-36.067,65.422-84.258,30.313-84.258,30.313,0.195,0.211-5.664,37.418-17.793,69.035-9.348,24.375-20.75,45.914-27.012,56.414-18.215,30.586-39.773,107.86-71.68,107.53-42.722-0.441-43.578-27.968-27.867-58.16,11-21.125,21.817-60.707,32.453-93.761,17.215-53.575,31.254-107.77,31.254-107.94,0.02-0.629-6.387-1.559-11.769,2.145-5.575,3.82-11.051,20.433-14.348,37.214-4.719,24.039-20.289,52.731-35.238,82.036-16.492,32.316-44.242,60.476-56.25,92.355-16.051,42.543-21.828,79.922-41.274,92.652-12.23,8.016-27.683,2.727-38.254-1.742-32.046-13.547-18.691-76.84,8.602-153.54,7.672-21.574,19.5-55.867,30.406-79.773,13.145-28.789,29.281-57.071,37.418-73.086,12.289-24.184,14.528-42.457,13.18-43.071l-17.922-8.961c-0.805-0.398-10.797,11.946-25.066,35.684-12.414,20.637-18.004,37.648-32.168,64.844-6.961,13.355-26.637,37.219-34.09,52.472-24.281,49.747-46.305,92.368-66.641,90.164-22.035-2.39-28.031-17.21-30.211-28.109-5.656-28.305,16.367-85.527,43.426-164.31,17.43-50.754,58.582-120.3,73.676-174.23,18.422-65.84,7.633-145.17,8.347-145.33l-8.957-8.965c-0.613-0.43-1.402,14.598-6.379,23.231-5.332,9.238-12.21,13.195-11.542,12.617,0.812-0.711,3.992,35.383-20.477,69.191-13.223,18.262-37.84,38.289-60.172,29.375"/></g></g></svg>
