<!-- Created with Inkscape (http://www.inkscape.org/) -->
<svg xmlns:rdf="http://www.w3.org/1999/02/22-rdf-syntax-ns#" xmlns="http://www.w3.org/2000/svg" height="695.95" width="1311.6" version="1.1" xmlns:cc="http://creativecommons.org/ns#" xmlns:dc="http://purl.org/dc/elements/1.1/">
 <metadata>
  <rdf:RDF>
   <cc:Work rdf:about="">
    <dc:format>image/svg+xml</dc:format>
    <dc:type rdf:resource="http://purl.org/dc/dcmitype/StillImage"/>
    <dc:title/>
   </cc:Work>
  </rdf:RDF>
 </metadata>
 <g transform="translate(602.96308,-205.24546)">
  <g transform="matrix(-7.5,0,0,-7.5,-1.1599791,935.88711)">
   <g transform="matrix(0.1,0,0,0.1,-108.51305,-4.2059321)">
    <path fill-rule="evenodd" fill="#FFF" d="m1351.7,386.68c-0.293-0.39-7.769-8.371-18.128-9.074-7.036-0.469-14.012-1.582-14.012-1.582,0.07-0.223-15.051,36.82-51.477,60.649-0.109,18.125-20.086,34.722-37.133,46.558-36.945,25.649-84.949,40.149-104.24,20.676-18.852-19.016,18.707-53.379,34.692-76.941,8.457-12.461,7.109-41.184,15.472-53.997,20.793-31.867,45.11-66.765,65.489-87.89,17.464-18.113,14.976-29.199,23.632-36.922,29.469-26.281,99.579-59.34,156.15-77.602,47.707-15.398,87.336-24.586,105.29-35.582,23.137-14.164,40.422-26.496,52.234-37.578,22.551-21.117,98.215-4.3555,175.69,39.539,115.63,65.52,133.94,144.3,132.05,153.85-3.695,18.602-32.921,39.875-40.363,58.848-2.668,6.789-10.422,65.988-37.765,162.73-5.907,20.852-5.457,53.105-10.079,75.719-4.39,21.488-14.921,43.574-18.406,65.289-4.562,28.355,1.758,57.898-3.769,84.07-3.711,17.578-14.844,34.008-17.911,49.805-12.031,61.91-11.574,86.25-24.832,101.88-19.679,23.187-36.425,13.996-44.55-11.461-9.504-29.789-10.41-71.957,0.078-111.01,6.883-25.652,5-69.234,4.746-70.933l-21.418-10.657c0.691,0.434,3.34,70.657-26.68,133.55-14.679,30.731-48.879,58.926-57.109,91.363-13.516,53.192-35.969,83.586-55.508,84.121-17.207,0.461-34.297-6.222-32.141-31.968,3.547-42.375,37.5-117.82,48.247-160.76,4.761-18.988,5.32-41.711,5.32-41.711-0.93-0.285-14.774,18.609-22.102,50.367-3.23,13.922-6.48,30.016-15.437,45.035-10.227,17.145-36.59,36.254-48.172,53.786-36.188,54.769-59.399,103.31-70.328,105.46-11.262,2.223-55.664-2.277-39.016-68,13.668-53.976,75.738-177.65,84.195-221.93,4.375-22.824,3.731-39.313,3.731-39.313l-32.145-10.652c-0.296-0.75-19.496,17.531-43.554,57.699-8.696,14.5-19.035,36.528-30.375,51.043-14.289,18.324-30.278,30.277-43.516,49.406-30.191,43.657-54.82,86.403-75.406,86.938-21.785,0.582-47.324-13.434-26.481-79.281,9.957-31.438,24.637-70.305,45.481-111.72,23.816-47.305,47.097-79.664,70.992-109.83,14.254-18.024,25.758-50.219,31.188-67.719,13.789-44.516,7.75-163.77,7.378-164.27"/>
   </g>
  </g>
  <g transform="matrix(7.5,0,0,-7.5,106.87428,934.74429)">
   <g transform="matrix(0.1,0,0,0.1,-108.51305,-4.2059321)">
    <path fill-rule="evenodd" fill="#FFF" d="m1351.7,386.68c-0.293-0.39-7.769-8.371-18.128-9.074-7.036-0.469-14.012-1.582-14.012-1.582,0.07-0.223-15.051,36.82-51.477,60.649-0.109,18.125-20.086,34.722-37.133,46.558-36.945,25.649-84.949,40.149-104.24,20.676-18.852-19.016,18.707-53.379,34.692-76.941,8.457-12.461,7.109-41.184,15.472-53.997,20.793-31.867,45.11-66.765,65.489-87.89,17.464-18.113,14.976-29.199,23.632-36.922,29.469-26.281,99.579-59.34,156.15-77.602,47.707-15.398,87.336-24.586,105.29-35.582,23.137-14.164,40.422-26.496,52.234-37.578,22.551-21.117,98.215-4.3555,175.69,39.539,115.63,65.52,133.94,144.3,132.05,153.85-3.695,18.602-32.921,39.875-40.363,58.848-2.668,6.789-10.422,65.988-37.765,162.73-5.907,20.852-5.457,53.105-10.079,75.719-4.39,21.488-14.921,43.574-18.406,65.289-4.562,28.355,1.758,57.898-3.769,84.07-3.711,17.578-14.844,34.008-17.911,49.805-12.031,61.91-11.574,86.25-24.832,101.88-19.679,23.187-36.425,13.996-44.55-11.461-9.504-29.789-10.41-71.957,0.078-111.01,6.883-25.652,5-69.234,4.746-70.933l-21.418-10.657c0.691,0.434,3.34,70.657-26.68,133.55-14.679,30.731-48.879,58.926-57.109,91.363-13.516,53.192-35.969,83.586-55.508,84.121-17.207,0.461-34.297-6.222-32.141-31.968,3.547-42.375,37.5-117.82,48.247-160.76,4.761-18.988,5.32-41.711,5.32-41.711-0.93-0.285-14.774,18.609-22.102,50.367-3.23,13.922-6.48,30.016-15.437,45.035-10.227,17.145-36.59,36.254-48.172,53.786-36.188,54.769-59.399,103.31-70.328,105.46-11.262,2.223-55.664-2.277-39.016-68,13.668-53.976,75.738-177.65,84.195-221.93,4.375-22.824,3.731-39.313,3.731-39.313l-32.145-10.652c-0.296-0.75-19.496,17.531-43.554,57.699-8.696,14.5-19.035,36.528-30.375,51.043-14.289,18.324-30.278,30.277-43.516,49.406-30.191,43.657-54.82,86.403-75.406,86.938-21.785,0.582-47.324-13.434-26.481-79.281,9.957-31.438,24.637-70.305,45.481-111.72,23.816-47.305,47.097-79.664,70.992-109.83,14.254-18.024,25.758-50.219,31.188-67.719,13.789-44.516,7.75-163.77,7.378-164.27"/>
   </g>
  </g>
 </g>
</svg>
