<!-- Created with Inkscape (http://www.inkscape.org/) -->
<svg xmlns:rdf="http://www.w3.org/1999/02/22-rdf-syntax-ns#" xmlns="http://www.w3.org/2000/svg" xml:space="preserve" height="113.09" width="90.711" version="1.1" xmlns:cc="http://creativecommons.org/ns#" xmlns:dc="http://purl.org/dc/elements/1.1/"><metadata><rdf:RDF><cc:Work rdf:about=""><dc:format>image/svg+xml</dc:format><dc:type rdf:resource="http://purl.org/dc/dcmitype/StillImage"/><dc:title/></cc:Work></rdf:RDF></metadata><defs/><g transform="matrix(1.25,0,0,-1.25,-4.3568238,113.09336)"><g transform="scale(0.1,0.1)"><path fill-rule="evenodd" fill="#FFF" d="m297.15,73.871c-5.234-98.902,390.42-95.312,380.39-8.2813-7.012,60.801-0.187,100.88,8.262,140.59,3.301,15.469,42.91,71.992,70.215,230.43,16.425,95.333-16.707,180.53-22.618,267.32-1.375,20.273-14.316,38.828-31.054,56.269-12.676,13.223-26.934,34.102-41.348,41.348-24.375,12.266-49.617,8.281-49.617,8.281-2.805,7.324-44.68,91.289-105.97,94.824-39.14,2.27-75.945-36.953-75.945-36.953-92.793,75.996-148.85,0-148.85,0s-46.133,40.117-101.01-5.074c-37.22-30.63-31.95-110.44-31.3-110.69,0.066-0.028-1.684,0.222-4.809,0.468-17.273,1.367-76.496,2.735-101.33-42.343-16.926-30.73,0.621-90.65,2.383-138.15,2.351-63.4,6.871-118.5,26.387-152.07,63.68-109.61,183.93-206.92,191.18-220.24,16.92-31.11,36.37-100.44,35.04-125.74"/></g></g></svg>
